<svg width="797" height="733" viewBox="0 0 797 733" fill="none" xmlns="http://www.w3.org/2000/svg">
<g filter="url(#filter0_d_409_972)">
<path d="M4 85.9912C23.5412 113.302 42.2891 140.981 49.2204 173.254C58.49 216.352 45.2955 262.689 59.6591 304.393C79.0334 360.655 142.876 392.804 164.255 448.368C177.783 483.511 172.648 524.272 190.185 557.651C214.695 604.358 244.132 623.59 263.297 627.363C323.591 639.255 449.023 645.57 510.026 637.984C551.364 632.858 596.542 617.644 614.622 580.779C628.652 552.156 622.639 517.67 633.453 487.735C652.828 434.139 718.633 410.724 747.903 361.639C785.858 297.955 751.452 212.784 781.516 145.164C794.376 116.254 817.717 93.6595 839.096 69.8345V0H4V85.9912Z" fill="#0E1237"/>
<path d="M295.198 443.898C287.933 446.974 280.041 451.608 278.872 459.276C276.909 472.029 293.82 478.59 306.889 479.984C405.472 490.441 505.141 473.505 604.1 479.492C614.413 480.107 625.061 481.133 635.124 483.47C637.253 478.426 639.758 473.669 642.598 469.118C637.504 467.19 632.618 464.689 628.151 461.449C636.335 457.062 645.187 454.683 654.373 453.453C662.891 443.693 672.828 434.836 683.142 426.142C599.048 426.06 514.912 425.978 430.817 425.855C384.845 425.896 337.412 426.142 295.198 443.898ZM212.44 23.8659C206.845 22.8408 201.166 21.4055 196.573 18.084C190.644 13.7783 187.846 7.13518 187.512 0H4V85.9912C11.4741 96.4479 18.823 106.905 25.4202 117.689C51.5587 112.523 77.5302 106.044 103.376 99.8925C242.336 66.9231 384.553 42.9341 527.48 45.8866C571.239 46.7887 619.257 52.0786 649.571 83.0797C656.335 90.0099 662.223 99.0314 661.053 108.545C658.924 125.563 637.504 132.042 620.092 133.559C489.566 144.918 359.292 93.2904 228.975 106.823C204.423 109.365 174.819 119.371 171.478 143.401C169.098 160.706 183.17 176.903 199.746 183.259C216.323 189.615 234.737 188.426 252.483 187.155C308.476 183.136 364.469 179.118 420.421 175.099C456.789 172.475 499.17 172.228 522.386 199.826C527.188 205.526 530.945 212.661 530.403 220.042C528.983 238.659 504.556 244.851 485.558 245.877C405.472 250.182 324.927 250.469 245.635 262.197C183.128 271.465 120.663 288.278 65.3795 317.967C83.0836 353.519 117.74 379.846 142.626 411.626C169.683 405.557 196.615 398.463 223.547 392.025C348.895 362.008 477.458 345.154 606.438 341.832C647.817 340.766 691.242 341.586 727.611 361.024C732.579 363.689 737.59 367.011 741.807 370.906C743.978 367.913 746.024 364.878 747.945 361.68C755.753 348.558 760.513 334.492 763.394 319.894C752.288 314.891 739.469 312.677 727.193 311.241C583.557 294.265 439.377 338.224 294.739 335.394C288.517 335.271 281.92 334.943 276.784 331.499C271.648 328.054 269.059 320.304 273.11 315.711C275.156 313.374 278.371 312.39 281.377 311.569C372.277 286.391 471.779 297.955 559.84 264.535C581.176 256.456 604.684 240.464 602.471 218.115C600.509 198.35 579.423 186.581 560.508 179.61C468.188 145.533 370.607 152.996 273.945 154.596C258.621 154.842 236.908 147.214 241.877 132.985C244.299 126.055 252.441 122.979 259.665 121.175C376.661 91.7732 495.287 159.639 615.916 165.38C647.024 166.857 680.72 163.207 704.019 142.95C730.074 120.314 736.379 80.4553 723.769 48.593C716.086 29.2788 702.474 12.8761 685.772 0.0820136H358.665C310.48 16.4437 261.752 32.9284 212.44 23.8659ZM263.297 627.404C322.464 623.18 397.372 610.468 456.538 606.244C507.02 602.636 557.71 598.986 607.816 592.097C610.405 588.57 612.701 584.839 614.664 580.82C622.681 564.499 624.142 546.292 625.938 528.085C481.842 549.368 326.806 512.667 191.897 560.768C209.642 591.687 227.263 617.111 263.297 627.404Z" fill="#262E68"/>
<path d="M496.122 361.68C516.807 361.68 533.576 345.211 533.576 324.897C533.576 304.582 516.807 288.114 496.122 288.114C475.437 288.114 458.668 304.582 458.668 324.897C458.668 345.211 475.437 361.68 496.122 361.68Z" fill="#33C3DF"/>
<path d="M496.122 288.114C475.495 288.114 458.793 304.475 458.709 324.692C462.593 327.439 467.896 328.669 470.15 332.77C471.946 336.051 471.236 340.356 473.616 343.268C474.994 344.99 477.207 345.851 478.626 347.573C480.881 350.28 480.631 354.504 483.178 356.964C485.307 354.914 486.685 352.207 487.27 349.337C487.562 347.902 487.646 346.425 488.23 345.072C488.94 343.432 490.36 342.079 490.694 340.315C491.153 337.773 489.232 335.477 487.312 333.754C484.806 331.499 482.009 329.531 479.044 327.849C478.125 327.316 477.123 326.824 476.414 326.004C475.704 325.225 475.328 324.036 475.745 323.092C475.996 322.559 476.497 322.026 476.414 321.452C476.288 320.796 475.537 320.468 474.952 320.099C473.073 318.91 472.781 316.162 473.825 314.235C474.869 312.308 476.873 311.036 478.877 310.093C480.881 309.15 483.052 308.453 484.89 307.223C486.727 305.952 488.23 303.983 488.105 301.769C488.021 300.17 487.144 298.693 487.144 297.135C487.144 295.536 488.856 293.814 490.193 294.675C491.529 295.577 490.861 298.037 492.28 298.816C492.99 299.185 493.867 298.939 494.619 298.652C496.372 298.037 498.251 297.258 499.003 295.618C499.212 295.167 499.295 294.675 499.587 294.224C499.921 293.691 500.506 293.322 500.965 292.87C501.967 291.804 502.176 290.287 502.218 288.852V288.606C500.214 288.319 498.168 288.114 496.122 288.114Z" fill="#2D92A0"/>
<path d="M514.87 293.117C512.782 293.363 510.611 293.568 508.982 294.798C507.604 295.823 506.853 297.463 505.517 298.529C503.972 299.76 501.759 300.17 500.423 301.605C500.13 301.933 499.88 302.302 499.963 302.712C500.047 303.163 500.423 303.45 500.715 303.778C501.717 304.967 501.341 306.772 500.423 308.043C499.504 309.273 498.21 310.175 497.166 311.324C495.788 312.882 494.953 314.85 494.201 316.736C493.45 318.623 492.656 320.632 492.823 322.682C492.99 324.733 494.452 326.824 496.498 327.07C498.21 327.275 500.256 326.291 501.467 327.521C501.842 327.89 502.009 328.382 502.176 328.833C502.803 330.802 503.053 332.893 502.844 334.943C502.761 335.969 502.594 336.994 502.844 337.978C503.304 339.7 504.974 340.848 505.809 342.448C506.895 344.58 506.352 347.122 506.602 349.46C506.644 349.788 506.728 350.157 507.02 350.28C507.27 350.403 507.563 350.239 507.813 350.116C510.527 348.681 513.033 346.876 515.246 344.785C515.997 344.088 516.707 343.35 517.125 342.489C518.335 340.11 517.375 337.281 517.667 334.615C518.168 330.146 522.093 326.906 525.893 324.405C528.315 322.805 530.945 321.165 532.95 319.115C531.238 308.002 524.432 298.57 514.87 293.117Z" fill="#2D92A0"/>
<path d="M463.887 332.975C462.092 332.155 460.505 331.089 459.044 329.818C461.507 347.779 477.165 361.639 496.122 361.639C512.824 361.639 527.02 350.854 531.822 336.01C529.735 337.281 527.563 338.306 525.183 338.921C520.423 340.192 515.287 339.7 510.527 341.012C507.396 341.874 504.431 343.514 501.174 343.76C494.828 344.293 489.358 339.7 483.345 337.568C477.04 335.353 469.942 335.764 463.887 332.975Z" fill="#2D92A0"/>
<path d="M483.345 337.609C479.42 336.215 475.119 335.846 471.027 335.066C471.779 337.896 471.779 341.012 473.616 343.309C474.994 345.031 477.207 345.892 478.627 347.615C480.881 350.321 480.631 354.545 483.178 357.005C485.307 354.955 486.685 352.248 487.27 349.378C487.562 347.943 487.646 346.466 488.23 345.113C488.856 343.678 490.026 342.448 490.527 340.971C488.147 339.741 485.767 338.47 483.345 337.609ZM510.485 341.012C508.941 341.422 507.437 342.038 505.934 342.571C506.895 344.662 506.394 347.122 506.644 349.419C506.686 349.747 506.769 350.116 507.062 350.239C507.312 350.362 507.604 350.198 507.855 350.075C510.569 348.64 513.074 346.835 515.287 344.744C516.039 344.047 516.749 343.309 517.166 342.448C517.542 341.669 517.709 340.807 517.751 339.946C515.329 340.192 512.866 340.397 510.485 341.012Z" fill="#24747A"/>
<path d="M147.219 86.4013C147.219 64.8317 161.833 46.5837 181.875 40.7198C177.491 39.4486 172.815 38.7514 168.013 38.7514C141.206 38.7514 119.494 60.075 119.494 86.4013C119.494 112.728 141.206 134.051 168.013 134.051C172.815 134.051 177.491 133.354 181.875 132.083C161.833 126.219 147.219 107.971 147.219 86.4013Z" fill="#FFE4AE"/>
<path d="M217.283 258.589C214.444 249.567 205.884 243.047 195.821 243.047C183.42 243.047 173.357 252.93 173.357 265.109C173.357 268.717 174.234 272.08 175.821 275.115C184.548 274.581 203.964 271.834 217.283 258.589ZM180.33 281.061C184.381 284.833 189.809 287.17 195.821 287.17C207.596 287.17 217.242 278.272 218.202 266.954C209.893 270.891 192.899 278.436 180.33 281.061Z" fill="#8CD7F8"/>
<path d="M237.785 249.977C236.323 246.041 225.718 246.041 211.479 249.28C214.152 251.823 216.156 254.98 217.283 258.548C203.922 271.793 184.547 274.54 175.779 275.073C174.234 272.08 173.315 268.676 173.315 265.068C173.315 264.371 173.357 263.674 173.441 263.018C160.497 269.579 152.521 276.304 153.983 280.24C155.82 285.161 172.188 283.931 192.022 277.739C202.001 274.335 212.314 269.743 218.202 266.954C218.202 267.036 218.16 267.159 218.16 267.241C231.146 260.68 239.246 253.914 237.785 249.977Z" fill="#EF443D"/>
<path d="M489.232 471.701C493.658 463.336 492.239 452.797 485.015 445.826C476.163 437.255 461.925 437.378 453.24 446.072C450.651 448.655 448.897 451.69 447.853 454.888C454.492 460.547 470.276 471.947 489.232 471.701ZM446.809 462.269C446.976 467.723 449.189 473.136 453.49 477.278C461.883 485.397 475.119 485.684 483.888 478.303C475.203 475.392 457.666 469.077 446.809 462.269Z" fill="#8CD7F8"/>
<path d="M509.984 479.697C511.738 475.884 504.222 468.585 491.738 461.08C491.821 464.73 490.986 468.38 489.232 471.701C470.276 471.947 454.492 460.547 447.853 454.888C448.897 451.69 450.651 448.655 453.24 446.072C453.741 445.58 454.242 445.129 454.785 444.678C440.88 440.454 430.358 439.716 428.604 443.529C426.391 448.327 438.918 458.702 457.499 467.969C467.019 472.439 477.666 476.253 483.846 478.344C483.762 478.426 483.679 478.467 483.637 478.508C497.625 482.773 508.231 483.511 509.984 479.697Z" fill="#EF443D"/>
<path d="M758.133 31.0422C760.054 23.989 757.256 16.2797 750.617 12.179C742.517 7.1352 731.786 9.51359 726.65 17.4689C725.147 19.8063 724.312 22.3897 724.061 24.9731C730.032 28.1717 743.853 34.2817 758.133 31.0422ZM724.521 30.7141C725.564 34.8148 728.153 38.5464 732.078 40.9658C739.761 45.7226 749.824 43.8363 755.21 36.8241C748.154 36.086 733.832 34.1177 724.521 30.7141Z" fill="#784C9E"/>
<path d="M775.127 33.7076C775.837 30.55 768.906 26.2443 758.258 22.5947C758.926 25.3422 758.926 28.2126 758.133 31.0011C743.853 34.2406 730.032 28.1716 724.061 24.9731C724.312 22.3897 725.147 19.8063 726.65 17.4689C726.942 17.0178 727.235 16.6077 727.569 16.1567C716.378 15.2135 708.278 16.3617 707.61 19.5192C706.733 23.4969 717.965 29.3198 733.539 33.2975C741.473 35.1428 750.158 36.291 755.168 36.8651C755.127 36.9061 755.085 36.9881 755.043 37.0291C766.317 38.0133 774.417 36.8651 775.127 33.7076Z" fill="#5C6AB2"/>
<path d="M291.941 110.677C298.767 110.677 304.3 105.243 304.3 98.5393C304.3 91.8357 298.767 86.4013 291.941 86.4013C285.115 86.4013 279.582 91.8357 279.582 98.5393C279.582 105.243 285.115 110.677 291.941 110.677Z" fill="#5F6CB2"/>
<path d="M728.195 328.464C735.021 328.464 740.555 323.03 740.555 316.326C740.555 309.623 735.021 304.188 728.195 304.188C721.369 304.188 715.836 309.623 715.836 316.326C715.836 323.03 721.369 328.464 728.195 328.464Z" fill="#5F6CB2"/>
<path d="M29.0111 34.5687C33.5079 34.5687 37.1533 30.9886 37.1533 26.5724C37.1533 22.1561 33.5079 18.576 29.0111 18.576C24.5143 18.576 20.8689 22.1561 20.8689 26.5724C20.8689 30.9886 24.5143 34.5687 29.0111 34.5687Z" fill="#784C9E"/>
<path d="M596.918 337.363C603.744 337.363 609.277 331.928 609.277 325.225C609.277 318.521 603.744 313.087 596.918 313.087C590.092 313.087 584.559 318.521 584.559 325.225C584.559 331.928 590.092 337.363 596.918 337.363Z" fill="#F9A859"/>
<path d="M456.789 568.067C463.615 568.067 469.148 562.633 469.148 555.929C469.148 549.225 463.615 543.791 456.789 543.791C449.963 543.791 444.429 549.225 444.429 555.929C444.429 562.633 449.963 568.067 456.789 568.067Z" fill="#F9A859"/>
<path d="M680.929 58.8857C685.425 58.8857 689.071 55.3057 689.071 50.8894C689.071 46.4732 685.425 42.8931 680.929 42.8931C676.432 42.8931 672.786 46.4732 672.786 50.8894C672.786 55.3057 676.432 58.8857 680.929 58.8857Z" fill="#8CD7F8"/>
<path d="M370.398 359.014C373.189 359.014 375.451 356.793 375.451 354.053C375.451 351.312 373.189 349.091 370.398 349.091C367.608 349.091 365.346 351.312 365.346 354.053C365.346 356.793 367.608 359.014 370.398 359.014Z" fill="#5F6CB2"/>
<path d="M408.938 312.185C411.728 312.185 413.99 309.963 413.99 307.223C413.99 304.483 411.728 302.261 408.938 302.261C406.147 302.261 403.885 304.483 403.885 307.223C403.885 309.963 406.147 312.185 408.938 312.185Z" fill="#5F6CB2"/>
<path d="M147.344 183.382C150.135 183.382 152.397 181.161 152.397 178.421C152.397 175.68 150.135 173.459 147.344 173.459C144.554 173.459 142.292 175.68 142.292 178.421C142.292 181.161 144.554 183.382 147.344 183.382Z" fill="#8CD7F8"/>
<path d="M195.863 349.993C198.653 349.993 200.915 347.771 200.915 345.031C200.915 342.291 198.653 340.069 195.863 340.069C193.073 340.069 190.811 342.291 190.811 345.031C190.811 347.771 193.073 349.993 195.863 349.993Z" fill="#784C9E"/>
<path d="M443.97 188.344C446.76 188.344 449.023 186.123 449.023 183.382C449.023 180.642 446.76 178.421 443.97 178.421C441.18 178.421 438.918 180.642 438.918 183.382C438.918 186.123 441.18 188.344 443.97 188.344Z" fill="#FEFACE"/>
<path d="M343.132 206.551C345.923 206.551 348.185 204.33 348.185 201.589C348.185 198.849 345.923 196.628 343.132 196.628C340.342 196.628 338.08 198.849 338.08 201.589C338.08 204.33 340.342 206.551 343.132 206.551Z" fill="#FEFACE"/>
<path d="M135.527 333.426C138.318 333.426 140.58 331.205 140.58 328.464C140.58 325.724 138.318 323.503 135.527 323.503C132.737 323.503 130.475 325.724 130.475 328.464C130.475 331.205 132.737 333.426 135.527 333.426Z" fill="#FEFACE"/>
<path d="M287.598 213.317C290.389 213.317 292.651 211.096 292.651 208.355C292.651 205.615 290.389 203.394 287.598 203.394C284.808 203.394 282.546 205.615 282.546 208.355C282.546 211.096 284.808 213.317 287.598 213.317Z" fill="#FBAF34"/>
<path d="M272.107 144.139C274.898 144.139 277.16 141.917 277.16 139.177C277.16 136.437 274.898 134.215 272.107 134.215C269.317 134.215 267.055 136.437 267.055 139.177C267.055 141.917 269.317 144.139 272.107 144.139Z" fill="#FBAF34"/>
<path d="M255.865 322.764C258.655 322.764 260.917 320.543 260.917 317.803C260.917 315.062 258.655 312.841 255.865 312.841C253.075 312.841 250.812 315.062 250.812 317.803C250.812 320.543 253.075 322.764 255.865 322.764Z" fill="#784C9E"/>
<path d="M505.558 312.185C508.349 312.185 510.611 309.963 510.611 307.223C510.611 304.483 508.349 302.261 505.558 302.261C502.768 302.261 500.506 304.483 500.506 307.223C500.506 309.963 502.768 312.185 505.558 312.185Z" fill="#F9A859"/>
<path d="M573.326 150.905C576.117 150.905 578.379 148.683 578.379 145.943C578.379 143.203 576.117 140.981 573.326 140.981C570.536 140.981 568.274 143.203 568.274 145.943C568.274 148.683 570.536 150.905 573.326 150.905Z" fill="#8CD7F8"/>
<path d="M278.621 478.467C281.411 478.467 283.673 476.246 283.673 473.505C283.673 470.765 281.411 468.543 278.621 468.543C275.831 468.543 273.569 470.765 273.569 473.505C273.569 476.246 275.831 478.467 278.621 478.467Z" fill="#8CD7F8"/>
<path d="M425.723 85.4992C428.514 85.4992 430.776 83.2777 430.776 80.5373C430.776 77.797 428.514 75.5755 425.723 75.5755C422.933 75.5755 420.671 77.797 420.671 80.5373C420.671 83.2777 422.933 85.4992 425.723 85.4992Z" fill="#8CD7F8"/>
<path d="M173.107 219.017C175.897 219.017 178.159 216.796 178.159 214.055C178.159 211.315 175.897 209.094 173.107 209.094C170.317 209.094 168.055 211.315 168.055 214.055C168.055 216.796 170.317 219.017 173.107 219.017Z" fill="#8CD7F8"/>
<path d="M214.903 31.5342C217.694 31.5342 219.956 29.3128 219.956 26.5724C219.956 23.8321 217.694 21.6106 214.903 21.6106C212.113 21.6106 209.851 23.8321 209.851 26.5724C209.851 29.3128 212.113 31.5342 214.903 31.5342Z" fill="#8CD7F8"/>
<path d="M244.215 27.4745C244.723 27.4745 245.134 27.0706 245.134 26.5724C245.134 26.0741 244.723 25.6702 244.215 25.6702C243.708 25.6702 243.297 26.0741 243.297 26.5724C243.297 27.0706 243.708 27.4745 244.215 27.4745Z" fill="#8CD7F8"/>
<path d="M214.903 99.4415C215.411 99.4415 215.822 99.0376 215.822 98.5393C215.822 98.0411 215.411 97.6372 214.903 97.6372C214.396 97.6372 213.985 98.0411 213.985 98.5393C213.985 99.0376 214.396 99.4415 214.903 99.4415Z" fill="#8CD7F8"/>
<path d="M100.996 43.7953C101.504 43.7953 101.915 43.3913 101.915 42.8931C101.915 42.3949 101.504 41.991 100.996 41.991C100.489 41.991 100.078 42.3949 100.078 42.8931C100.078 43.3913 100.489 43.7953 100.996 43.7953Z" fill="#8CD7F8"/>
<path d="M110.141 160.131C110.648 160.131 111.059 159.728 111.059 159.229C111.059 158.731 110.648 158.327 110.141 158.327C109.633 158.327 109.222 158.731 109.222 159.229C109.222 159.728 109.633 160.131 110.141 160.131Z" fill="#8CD7F8"/>
<path d="M451.653 353.315C452.16 353.315 452.572 352.911 452.572 352.412C452.572 351.914 452.16 351.51 451.653 351.51C451.146 351.51 450.734 351.914 450.734 352.412C450.734 352.911 451.146 353.315 451.653 353.315Z" fill="#8CD7F8"/>
<path d="M214.903 231.032C215.411 231.032 215.822 230.628 215.822 230.13C215.822 229.632 215.411 229.228 214.903 229.228C214.396 229.228 213.985 229.632 213.985 230.13C213.985 230.628 214.396 231.032 214.903 231.032Z" fill="#8CD7F8"/>
<path d="M135.653 231.934C136.16 231.934 136.571 231.53 136.571 231.032C136.571 230.534 136.16 230.13 135.653 230.13C135.145 230.13 134.734 230.534 134.734 231.032C134.734 231.53 135.145 231.934 135.653 231.934Z" fill="#8CD7F8"/>
<path d="M243.297 184.284C243.804 184.284 244.215 183.881 244.215 183.382C244.215 182.884 243.804 182.48 243.297 182.48C242.789 182.48 242.378 182.884 242.378 183.382C242.378 183.881 242.789 184.284 243.297 184.284Z" fill="#8CD7F8"/>
<path d="M370.398 161.075C370.906 161.075 371.317 160.671 371.317 160.173C371.317 159.674 370.906 159.27 370.398 159.27C369.891 159.27 369.48 159.674 369.48 160.173C369.48 160.671 369.891 161.075 370.398 161.075Z" fill="#8CD7F8"/>
<path d="M406.14 49.8642C406.648 49.8642 407.059 49.4603 407.059 48.9621C407.059 48.4638 406.648 48.0599 406.14 48.0599C405.633 48.0599 405.222 48.4638 405.222 48.9621C405.222 49.4603 405.633 49.8642 406.14 49.8642Z" fill="#8CD7F8"/>
<path d="M531.739 32.4363C532.246 32.4363 532.657 32.0324 532.657 31.5342C532.657 31.036 532.246 30.632 531.739 30.632C531.231 30.632 530.82 31.036 530.82 31.5342C530.82 32.0324 531.231 32.4363 531.739 32.4363Z" fill="#8CD7F8"/>
<path d="M505.558 133.682C506.066 133.682 506.477 133.278 506.477 132.78C506.477 132.282 506.066 131.878 505.558 131.878C505.051 131.878 504.64 132.282 504.64 132.78C504.64 133.278 505.051 133.682 505.558 133.682Z" fill="#8CD7F8"/>
<path d="M539.38 277.698C539.887 277.698 540.298 277.294 540.298 276.796C540.298 276.297 539.887 275.894 539.38 275.894C538.872 275.894 538.461 276.297 538.461 276.796C538.461 277.294 538.872 277.698 539.38 277.698Z" fill="#8CD7F8"/>
<path d="M443.97 328.505C444.893 328.505 445.64 327.771 445.64 326.865C445.64 325.959 444.893 325.225 443.97 325.225C443.048 325.225 442.3 325.959 442.3 326.865C442.3 327.771 443.048 328.505 443.97 328.505Z" fill="#8CD7F8"/>
<path d="M304.3 346.835C304.808 346.835 305.219 346.431 305.219 345.933C305.219 345.435 304.808 345.031 304.3 345.031C303.793 345.031 303.382 345.435 303.382 345.933C303.382 346.431 303.793 346.835 304.3 346.835Z" fill="#8CD7F8"/>
<path d="M299.206 441.069C299.714 441.069 300.125 440.665 300.125 440.167C300.125 439.669 299.714 439.265 299.206 439.265C298.699 439.265 298.288 439.669 298.288 440.167C298.288 440.665 298.699 441.069 299.206 441.069Z" fill="#8CD7F8"/>
<path d="M404.762 473.464C405.27 473.464 405.681 473.06 405.681 472.562C405.681 472.064 405.27 471.66 404.762 471.66C404.255 471.66 403.844 472.064 403.844 472.562C403.844 473.06 404.255 473.464 404.762 473.464Z" fill="#8CD7F8"/>
<path d="M358.498 397.11C359.513 397.11 360.335 396.302 360.335 395.305C360.335 394.309 359.513 393.501 358.498 393.501C357.483 393.501 356.661 394.309 356.661 395.305C356.661 396.302 357.483 397.11 358.498 397.11Z" fill="white"/>
<path d="M648.485 392.435C649.5 392.435 650.322 391.627 650.322 390.631C650.322 389.634 649.5 388.826 648.485 388.826C647.471 388.826 646.648 389.634 646.648 390.631C646.648 391.627 647.471 392.435 648.485 392.435Z" fill="white"/>
<path d="M612.409 371.234C613.424 371.234 614.246 370.427 614.246 369.43C614.246 368.434 613.424 367.626 612.409 367.626C611.394 367.626 610.572 368.434 610.572 369.43C610.572 370.427 611.394 371.234 612.409 371.234Z" fill="white"/>
<path d="M640.176 435.328C641.191 435.328 642.013 434.52 642.013 433.524C642.013 432.527 641.191 431.719 640.176 431.719C639.161 431.719 638.339 432.527 638.339 433.524C638.339 434.52 639.161 435.328 640.176 435.328Z" fill="white"/>
<path d="M219.956 430.817C220.97 430.817 221.793 430.009 221.793 429.013C221.793 428.016 220.97 427.209 219.956 427.209C218.941 427.209 218.118 428.016 218.118 429.013C218.118 430.009 218.941 430.817 219.956 430.817Z" fill="white"/>
<path d="M409.272 378.329C410.287 378.329 411.109 377.521 411.109 376.524C411.109 375.528 410.287 374.72 409.272 374.72C408.257 374.72 407.435 375.528 407.435 376.524C407.435 377.521 408.257 378.329 409.272 378.329Z" fill="white"/>
<path d="M452.572 244.77C453.586 244.77 454.409 243.962 454.409 242.965C454.409 241.969 453.586 241.161 452.572 241.161C451.557 241.161 450.734 241.969 450.734 242.965C450.734 243.962 451.557 244.77 452.572 244.77Z" fill="white"/>
<path d="M97.9483 265.642C98.963 265.642 99.7855 264.834 99.7855 263.838C99.7855 262.841 98.963 262.033 97.9483 262.033C96.9336 262.033 96.1111 262.841 96.1111 263.838C96.1111 264.834 96.9336 265.642 97.9483 265.642Z" fill="white"/>
<path d="M655.5 191.051C656.515 191.051 657.337 190.243 657.337 189.246C657.337 188.25 656.515 187.442 655.5 187.442C654.485 187.442 653.663 188.25 653.663 189.246C653.663 190.243 654.485 191.051 655.5 191.051Z" fill="white"/>
<path d="M574.663 280.978C575.677 280.978 576.5 280.171 576.5 279.174C576.5 278.178 575.677 277.37 574.663 277.37C573.648 277.37 572.825 278.178 572.825 279.174C572.825 280.171 573.648 280.978 574.663 280.978Z" fill="white"/>
<path d="M673.58 327.029C674.594 327.029 675.417 326.221 675.417 325.225C675.417 324.228 674.594 323.421 673.58 323.421C672.565 323.421 671.743 324.228 671.743 325.225C671.743 326.221 672.565 327.029 673.58 327.029Z" fill="white"/>
<path d="M413.531 231.032C414.546 231.032 415.368 230.224 415.368 229.228C415.368 228.231 414.546 227.424 413.531 227.424C412.516 227.424 411.694 228.231 411.694 229.228C411.694 230.224 412.516 231.032 413.531 231.032Z" fill="white"/>
<path d="M520.214 231.934C521.229 231.934 522.052 231.127 522.052 230.13C522.052 229.134 521.229 228.326 520.214 228.326C519.2 228.326 518.377 229.134 518.377 230.13C518.377 231.127 519.2 231.934 520.214 231.934Z" fill="white"/>
<path d="M689.071 97.4322C690.085 97.4322 690.908 96.6243 690.908 95.6279C690.908 94.6314 690.085 93.8236 689.071 93.8236C688.056 93.8236 687.233 94.6314 687.233 95.6279C687.233 96.6243 688.056 97.4322 689.071 97.4322Z" fill="white"/>
<path d="M633.829 147.747C634.844 147.747 635.666 146.94 635.666 145.943C635.666 144.947 634.844 144.139 633.829 144.139C632.815 144.139 631.992 144.947 631.992 145.943C631.992 146.94 632.815 147.747 633.829 147.747Z" fill="white"/>
<path d="M592.033 25.2602C593.047 25.2602 593.87 24.4524 593.87 23.4559C593.87 22.4594 593.047 21.6516 592.033 21.6516C591.018 21.6516 590.195 22.4594 590.195 23.4559C590.195 24.4524 591.018 25.2602 592.033 25.2602Z" fill="white"/>
<path d="M245.134 68.8504C246.149 68.8504 246.971 68.0426 246.971 67.0461C246.971 66.0496 246.149 65.2418 245.134 65.2418C244.119 65.2418 243.297 66.0496 243.297 67.0461C243.297 68.0426 244.119 68.8504 245.134 68.8504Z" fill="white"/>
<path d="M47.1744 82.9977C48.189 82.9977 49.0116 82.1899 49.0116 81.1934C49.0116 80.1969 48.189 79.3891 47.1744 79.3891C46.1597 79.3891 45.3372 80.1969 45.3372 81.1934C45.3372 82.1899 46.1597 82.9977 47.1744 82.9977Z" fill="white"/>
<path d="M407.101 398.914C408.115 398.914 408.938 398.106 408.938 397.11C408.938 396.113 408.115 395.305 407.101 395.305C406.086 395.305 405.263 396.113 405.263 397.11C405.263 398.106 406.086 398.914 407.101 398.914Z" fill="#F9A859"/>
<path d="M306.179 495.69C306.687 495.69 307.098 495.286 307.098 494.788C307.098 494.29 306.687 493.886 306.179 493.886C305.672 493.886 305.261 494.29 305.261 494.788C305.261 495.286 305.672 495.69 306.179 495.69Z" fill="#8CD7F8"/>
<path d="M601.219 403.712C601.726 403.712 602.137 403.308 602.137 402.81C602.137 402.311 601.726 401.908 601.219 401.908C600.711 401.908 600.3 402.311 600.3 402.81C600.3 403.308 600.711 403.712 601.219 403.712Z" fill="#8CD7F8"/>
<path d="M539.38 433.524C539.887 433.524 540.298 433.12 540.298 432.622C540.298 432.123 539.887 431.719 539.38 431.719C538.872 431.719 538.461 432.123 538.461 432.622C538.461 433.12 538.872 433.524 539.38 433.524Z" fill="#8CD7F8"/>
<path d="M707.443 140.981C707.95 140.981 708.361 140.577 708.361 140.079C708.361 139.581 707.95 139.177 707.443 139.177C706.935 139.177 706.524 139.581 706.524 140.079C706.524 140.577 706.935 140.981 707.443 140.981Z" fill="#8CD7F8"/>
<path d="M671.033 161.977C671.54 161.977 671.951 161.573 671.951 161.075C671.951 160.576 671.54 160.172 671.033 160.172C670.525 160.172 670.114 160.576 670.114 161.075C670.114 161.573 670.525 161.977 671.033 161.977Z" fill="#8CD7F8"/>
<path d="M633.829 303.163C634.336 303.163 634.748 302.759 634.748 302.261C634.748 301.763 634.336 301.359 633.829 301.359C633.322 301.359 632.91 301.763 632.91 302.261C632.91 302.759 633.322 303.163 633.829 303.163Z" fill="#8CD7F8"/>
<path d="M788.447 26.5724C788.954 26.5724 789.366 26.1685 789.366 25.6703C789.366 25.172 788.954 24.7681 788.447 24.7681C787.94 24.7681 787.528 25.172 787.528 25.6703C787.528 26.1685 787.94 26.5724 788.447 26.5724Z" fill="#8CD7F8"/>
<path d="M740.429 66.103C740.936 66.103 741.348 65.6991 741.348 65.2008C741.348 64.7026 740.936 64.2987 740.429 64.2987C739.922 64.2987 739.51 64.7026 739.51 65.2008C739.51 65.6991 739.922 66.103 740.429 66.103Z" fill="#8CD7F8"/>
<path d="M690.365 22.5127C690.872 22.5127 691.284 22.1088 691.284 21.6106C691.284 21.1123 690.872 20.7084 690.365 20.7084C689.858 20.7084 689.446 21.1123 689.446 21.6106C689.446 22.1088 689.858 22.5127 690.365 22.5127Z" fill="#8CD7F8"/>
<path d="M627.775 51.7916C628.282 51.7916 628.693 51.3877 628.693 50.8895C628.693 50.3912 628.282 49.9873 627.775 49.9873C627.267 49.9873 626.856 50.3912 626.856 50.8895C626.856 51.3877 627.267 51.7916 627.775 51.7916Z" fill="#8CD7F8"/>
<path d="M510.569 82.3416C511.076 82.3416 511.488 81.9377 511.488 81.4394C511.488 80.9412 511.076 80.5373 510.569 80.5373C510.062 80.5373 509.65 80.9412 509.65 81.4394C509.65 81.9377 510.062 82.3416 510.569 82.3416Z" fill="#8CD7F8"/>
<path d="M463.72 35.4709C464.228 35.4709 464.639 35.067 464.639 34.5687C464.639 34.0705 464.228 33.6666 463.72 33.6666C463.213 33.6666 462.802 34.0705 462.802 34.5687C462.802 35.067 463.213 35.4709 463.72 35.4709Z" fill="#8CD7F8"/>
<path d="M369.438 31.5342C369.945 31.5342 370.357 31.1303 370.357 30.6321C370.357 30.1338 369.945 29.7299 369.438 29.7299C368.931 29.7299 368.519 30.1338 368.519 30.6321C368.519 31.1303 368.931 31.5342 369.438 31.5342Z" fill="#8CD7F8"/>
<path d="M371.317 101.492C371.824 101.492 372.235 101.088 372.235 100.59C372.235 100.091 371.824 99.6875 371.317 99.6875C370.809 99.6875 370.398 100.091 370.398 100.59C370.398 101.088 370.809 101.492 371.317 101.492Z" fill="#8CD7F8"/>
<path d="M320.084 159.229C320.591 159.229 321.002 158.825 321.002 158.327C321.002 157.829 320.591 157.425 320.084 157.425C319.576 157.425 319.165 157.829 319.165 158.327C319.165 158.825 319.576 159.229 320.084 159.229Z" fill="#8CD7F8"/>
<path d="M359.458 231.032C359.966 231.032 360.377 230.628 360.377 230.13C360.377 229.632 359.966 229.228 359.458 229.228C358.951 229.228 358.54 229.632 358.54 230.13C358.54 230.628 358.951 231.032 359.458 231.032Z" fill="#8CD7F8"/>
<path d="M254.904 272.244C255.412 272.244 255.823 271.84 255.823 271.342C255.823 270.844 255.412 270.44 254.904 270.44C254.397 270.44 253.986 270.844 253.986 271.342C253.986 271.84 254.397 272.244 254.904 272.244Z" fill="#8CD7F8"/>
<path d="M213.985 338.757C214.492 338.757 214.903 338.353 214.903 337.855C214.903 337.357 214.492 336.953 213.985 336.953C213.477 336.953 213.066 337.357 213.066 337.855C213.066 338.353 213.477 338.757 213.985 338.757Z" fill="#8CD7F8"/>
<path d="M169.641 411.585C170.149 411.585 170.56 411.181 170.56 410.683C170.56 410.185 170.149 409.781 169.641 409.781C169.134 409.781 168.723 410.185 168.723 410.683C168.723 411.181 169.134 411.585 169.641 411.585Z" fill="#8CD7F8"/>
<path d="M401.13 328.587C401.637 328.587 402.048 328.183 402.048 327.685C402.048 327.187 401.637 326.783 401.13 326.783C400.622 326.783 400.211 327.187 400.211 327.685C400.211 328.183 400.622 328.587 401.13 328.587Z" fill="#8CD7F8"/>
<path d="M402.09 249.731C402.598 249.731 403.009 249.327 403.009 248.829C403.009 248.331 402.598 247.927 402.09 247.927C401.583 247.927 401.172 248.331 401.172 248.829C401.172 249.327 401.583 249.731 402.09 249.731Z" fill="#8CD7F8"/>
<path d="M403.009 106.618C403.516 106.618 403.927 106.214 403.927 105.715C403.927 105.217 403.516 104.813 403.009 104.813C402.501 104.813 402.09 105.217 402.09 105.715C402.09 106.214 402.501 106.618 403.009 106.618Z" fill="#8CD7F8"/>
<path d="M401.13 154.678C401.637 154.678 402.048 154.274 402.048 153.775C402.048 153.277 401.637 152.873 401.13 152.873C400.622 152.873 400.211 153.277 400.211 153.775C400.211 154.274 400.622 154.678 401.13 154.678Z" fill="#8CD7F8"/>
<path d="M71.3085 28.4177C71.8158 28.4177 72.2271 28.0138 72.2271 27.5156C72.2271 27.0173 71.8158 26.6134 71.3085 26.6134C70.8012 26.6134 70.3899 27.0173 70.3899 27.5156C70.3899 28.0138 70.8012 28.4177 71.3085 28.4177Z" fill="#8CD7F8"/>
<path d="M100.078 111.62C100.585 111.62 100.996 111.217 100.996 110.718C100.996 110.22 100.585 109.816 100.078 109.816C99.5705 109.816 99.1592 110.22 99.1592 110.718C99.1592 111.217 99.5705 111.62 100.078 111.62Z" fill="#8CD7F8"/>
<path d="M152.396 23.4149C152.904 23.4149 153.315 23.011 153.315 22.5127C153.315 22.0145 152.904 21.6106 152.396 21.6106C151.889 21.6106 151.478 22.0145 151.478 22.5127C151.478 23.011 151.889 23.4149 152.396 23.4149Z" fill="#8CD7F8"/>
<path d="M170.56 85.5402C171.067 85.5402 171.478 85.1363 171.478 84.638C171.478 84.1398 171.067 83.7359 170.56 83.7359C170.052 83.7359 169.641 84.1398 169.641 84.638C169.641 85.1363 170.052 85.5402 170.56 85.5402Z" fill="#8CD7F8"/>
<path d="M296.826 44.7384C297.334 44.7384 297.745 44.3345 297.745 43.8363C297.745 43.338 297.334 42.9341 296.826 42.9341C296.319 42.9341 295.908 43.338 295.908 43.8363C295.908 44.3345 296.319 44.7384 296.826 44.7384Z" fill="#8CD7F8"/>
<path d="M209.851 158.327C210.358 158.327 210.77 157.923 210.77 157.425C210.77 156.927 210.358 156.523 209.851 156.523C209.344 156.523 208.932 156.927 208.932 157.425C208.932 157.923 209.344 158.327 209.851 158.327Z" fill="#8CD7F8"/>
<path d="M510.569 189.246C511.076 189.246 511.488 188.842 511.488 188.344C511.488 187.846 511.076 187.442 510.569 187.442C510.062 187.442 509.65 187.846 509.65 188.344C509.65 188.842 510.062 189.246 510.569 189.246Z" fill="#8CD7F8"/>
<path d="M608.818 265.109C611.608 265.109 613.87 262.887 613.87 260.147C613.87 257.407 611.608 255.185 608.818 255.185C606.028 255.185 603.766 257.407 603.766 260.147C603.766 262.887 606.028 265.109 608.818 265.109Z" fill="#F9A859"/>
<path d="M561.969 520.294L583.306 523.083L590.529 500.201L588.233 524.272L608.526 529.644L586.479 527.757L579.089 552.361L582.763 526.732L561.969 520.294ZM451.987 387.514L473.324 390.303L480.547 367.421L478.292 391.492L498.544 396.864L476.497 394.977L469.106 419.581L472.823 393.911L451.987 387.514Z" fill="#EF443D"/>
<path d="M332.86 61.4692L346.138 63.2325L350.648 48.9621L349.228 63.9706L361.88 67.3332L348.143 66.144L343.508 81.4395L345.846 65.4878L332.86 61.4692ZM73.3962 182.808L86.6743 184.531L91.1838 170.301L89.7641 185.269L102.374 188.631L88.6367 187.442L84.0437 202.779L86.3402 186.786L73.3962 182.808Z" fill="#FFF200"/>
<path d="M179.37 490.154L199.955 484.003L196.907 460.26L204.966 483.101L225.718 479.738L204.841 486.956L208.431 512.38L200.999 487.53L179.37 490.154Z" fill="#A44F24"/>
<path d="M647.692 255.39L662.932 257.81L668.611 241.571L666.481 258.794L680.887 263.018L665.145 261.213L659.3 278.723L662.473 260.434L647.692 255.39ZM700.595 204.542L715.836 206.961L721.472 190.682L719.343 207.904L733.79 212.169L718.007 210.365L712.203 227.875L715.376 209.545L700.595 204.542ZM409.105 554.125L424.387 556.544L430.024 540.264L427.895 557.487L442.342 561.752L426.558 559.948L420.754 577.457L423.928 559.127L409.105 554.125ZM598.797 82.5467L614.037 84.9251L619.716 68.6864L617.545 85.9092L631.992 90.1739L616.209 88.3696L610.405 105.839L613.578 87.5495L598.797 82.5467Z" fill="#FFF200"/>
<path d="M287.598 251.7L302.463 247.271L300.25 230.13L306.054 246.615L321.002 244.195L305.97 249.403L308.559 267.733L303.215 249.813L287.598 251.7Z" fill="#5F6CB2"/>
<path d="M593.619 438.732L609.069 438.075L611.282 420.976L612.743 438.321L627.775 439.634L611.908 440.987L609.82 459.317L609.152 440.7L593.619 438.732ZM225.3 550.557L240.75 549.901L242.921 532.801L244.382 550.147L259.456 551.459L243.589 552.812L241.501 571.142L240.833 552.525L225.3 550.557Z" fill="white"/>
<path d="M598.212 211.882L613.662 211.226L615.875 194.126L617.336 211.472L632.368 212.784L616.501 214.137L614.413 232.467L613.745 213.85L598.212 211.882ZM463.094 265.56L478.543 264.904L480.714 247.804L482.176 265.15L497.249 266.462L481.382 267.815L479.295 286.145L478.627 267.528L463.094 265.56ZM740.012 108.75L755.503 108.094L757.674 90.9941L759.135 108.34L774.209 109.611L758.342 111.005L756.254 129.335L755.586 110.718L740.012 108.75Z" fill="#5F6CB2"/>
<path d="M636.209 340.684L642.472 336.461L638.881 328.792L644.059 335.64L650.656 332.319L644.435 336.953L648.401 345.113L643.224 337.527L636.209 340.684ZM566.103 381.322L572.366 377.098L568.775 369.43L573.953 376.237L580.55 372.957L574.329 377.59L578.295 385.751L573.118 378.165L566.103 381.322Z" fill="#FFF200"/>
<path d="M524.265 352.125L530.277 345.687L524.098 337.855L531.864 344.334L538.503 338.839L532.616 345.728L539.38 354.053L531.405 346.712L524.265 352.125Z" fill="#FEFACE"/>
<path d="M583.64 52.6937C584.147 52.6937 584.559 52.2898 584.559 51.7916C584.559 51.2933 584.147 50.8894 583.64 50.8894C583.133 50.8894 582.721 51.2933 582.721 51.7916C582.721 52.2898 583.133 52.6937 583.64 52.6937Z" fill="#8CD7F8"/>
<path d="M568.232 99.4415C568.74 99.4415 569.151 99.0376 569.151 98.5393C569.151 98.0411 568.74 97.6372 568.232 97.6372C567.725 97.6372 567.314 98.0411 567.314 98.5393C567.314 99.0376 567.725 99.4415 568.232 99.4415Z" fill="#8CD7F8"/>
<path d="M368.519 278.6C369.027 278.6 369.438 278.196 369.438 277.698C369.438 277.2 369.027 276.796 368.519 276.796C368.012 276.796 367.601 277.2 367.601 277.698C367.601 278.196 368.012 278.6 368.519 278.6Z" fill="#8CD7F8"/>
<path d="M303.465 307.223C303.973 307.223 304.384 306.819 304.384 306.321C304.384 305.822 303.973 305.419 303.465 305.419C302.958 305.419 302.547 305.822 302.547 306.321C302.547 306.819 302.958 307.223 303.465 307.223Z" fill="#8CD7F8"/>
<path d="M470.234 158.327C470.741 158.327 471.153 157.923 471.153 157.425C471.153 156.927 470.741 156.523 470.234 156.523C469.727 156.523 469.315 156.927 469.315 157.425C469.315 157.923 469.727 158.327 470.234 158.327Z" fill="#8CD7F8"/>
<path d="M279.54 390.631C280.047 390.631 280.458 390.227 280.458 389.728C280.458 389.23 280.047 388.826 279.54 388.826C279.032 388.826 278.621 389.23 278.621 389.728C278.621 390.227 279.032 390.631 279.54 390.631Z" fill="#8CD7F8"/>
<path d="M556.082 665.95C567.063 656.396 579.339 646.349 593.995 645.857C616.292 645.078 634.748 666.729 657.003 665.294C662.431 664.925 667.818 663.203 673.204 663.982C683.559 665.499 689.948 675.423 697.422 682.64C701.764 686.823 706.858 690.308 712.37 692.851C707.944 698.592 702.224 704.046 694.958 705.276C687.735 706.506 680.595 703.307 673.788 700.642C667.943 698.346 661.93 696.418 655.792 694.819C652.995 694.081 650.072 693.466 647.232 693.958C644.685 694.409 642.389 695.721 640.301 697.238C634.33 701.544 629.695 707.449 624.142 712.288C618.589 717.127 611.407 721.022 604.058 719.997C598.254 719.177 593.118 715.404 587.231 715.076C581.176 714.707 575.54 718.07 569.527 718.972C559.213 720.489 549.276 714.707 541.175 708.228C539.129 706.588 537 704.661 536.499 702.118C536.039 699.535 537.334 697.033 538.628 694.737C544.182 685.018 550.278 675.628 556.833 666.524" fill="#EF923D"/>
<path d="M562.387 682.189C570.779 674.479 580.007 667.344 590.864 663.695C601.72 660.086 614.497 660.496 623.808 667.098C624.935 667.918 626.063 668.821 627.399 669.272C631.324 670.584 635.708 667.467 639.675 668.657C643.015 669.682 644.852 673.372 648.151 674.562C652.201 676.079 656.419 673.29 660.594 672.142C665.02 670.953 669.989 671.732 673.83 674.233C677.045 676.366 679.384 679.523 681.972 682.394C687.234 688.217 694.791 693.097 702.599 691.866C697.505 696.131 689.906 696.131 683.517 694.122C677.129 692.112 671.45 688.463 665.271 685.961C659.091 683.46 651.825 682.23 645.855 685.182C641.136 687.52 637.295 692.358 632.034 692.235C628.986 692.194 625.436 690.513 623.182 692.563C622.43 693.22 622.054 694.163 621.637 695.065C620.008 698.756 618.088 702.364 615.207 705.235C612.325 708.105 608.4 710.114 604.309 709.95C600.509 709.827 597.043 707.9 593.536 706.465C588.108 704.291 582.178 703.225 576.333 703.43C572.7 703.553 568.817 704.127 565.56 702.528C560.383 699.986 559.172 693.302 559.088 687.602C559.046 685.428 559.38 682.763 561.426 681.984" fill="#A93D0F"/>
<path d="M552.24 640.813C555.998 626.912 560.549 611.862 572.45 603.456C590.571 590.703 618.171 598.658 635.875 585.372C640.218 582.132 643.725 577.704 648.652 575.448C658.13 571.06 669.028 575.858 679.342 577.827C685.313 578.975 691.534 579.098 697.547 578.196C697.088 585.413 695.417 593.04 690.073 598.002C684.728 602.964 677.004 604.153 669.822 605.67C663.642 606.941 657.546 608.623 651.575 610.632C648.861 611.534 646.063 612.6 643.975 614.569C642.097 616.332 640.927 618.669 640.051 621.048C637.504 627.896 637.002 635.318 635.082 642.371C633.161 649.424 629.403 656.601 622.722 659.758C617.419 662.26 611.031 661.89 605.937 664.802C600.676 667.795 597.878 673.659 593.369 677.678C585.644 684.567 574.12 685.1 563.723 684.157C561.092 683.911 558.211 683.501 556.374 681.615C554.537 679.728 554.203 676.899 553.994 674.316C553.159 663.203 552.908 652.049 553.242 640.936" fill="#FDE400"/>
<path d="M671.423 579.67C667.331 579.137 663.239 578.235 659.064 578.317C654.888 578.399 650.588 579.629 647.79 582.622C645.744 584.878 644.7 587.871 642.571 590.045C637.059 595.58 626.996 593.079 620.608 597.59C618.812 598.861 617.434 600.624 615.513 601.731C609.584 605.258 601.693 601.239 595.054 603.167C586.995 605.504 584.156 615.018 578.519 621.169C577.892 621.866 577.183 622.563 576.264 622.85C575.011 623.26 573.675 622.85 572.339 622.85C568.581 622.891 565.784 626.213 563.696 629.288C561.316 632.774 559.103 636.382 557.015 640.073C556.848 649.873 557.14 659.715 557.85 669.475C557.892 670.09 557.934 670.746 558.017 671.402C559.353 671.197 560.648 670.992 561.984 670.828C566.326 670.172 570.627 669.557 575.011 669.516C580.314 669.475 586.327 670.131 590.168 666.563C595.346 661.765 593.342 652.252 598.853 647.905C602.277 645.24 607.121 645.65 611.463 645.609C615.848 645.568 621.025 644.174 622.32 640.073C623.739 635.562 619.313 630.641 620.983 626.213C623.113 620.513 633.259 620.636 634.637 614.69C635.18 612.393 634.011 609.974 634.303 607.636C634.762 603.577 639.105 601.116 643.113 600.05C647.122 598.943 651.59 598.41 654.554 595.58C655.932 594.268 656.851 592.587 658.103 591.152C665.076 583.278 678.814 586.149 687.29 579.875C682.112 580.408 676.726 580.367 671.423 579.67Z" fill="#C67700"/>
<path d="M286.763 661.809C275.782 652.254 263.506 642.207 248.85 641.715C226.553 640.936 208.097 662.588 185.842 661.153C180.414 660.783 175.027 659.061 169.641 659.84C159.286 661.358 152.897 671.281 145.423 678.498C141.081 682.681 135.987 686.167 130.475 688.709C134.901 694.45 140.622 699.904 147.887 701.134C155.11 702.364 162.25 699.166 169.057 696.5C174.902 694.204 180.915 692.277 187.053 690.677C189.85 689.939 192.773 689.324 195.613 689.816C198.16 690.267 200.456 691.58 202.544 693.097C208.515 697.402 213.15 703.307 218.703 708.146C224.256 712.985 231.438 716.881 238.787 715.856C244.591 715.035 249.727 711.263 255.614 710.935C261.669 710.566 267.306 713.928 273.318 714.83C283.632 716.348 293.569 710.566 301.67 704.087C303.716 702.446 305.845 700.519 306.346 697.977C306.806 695.393 305.511 692.892 304.217 690.595C298.663 680.877 292.567 671.486 286.012 662.383" fill="#EF923D"/>
<path d="M280.5 678.006C272.108 670.297 262.88 663.162 252.024 659.512C241.167 655.904 228.39 656.314 219.079 662.916C217.952 663.736 216.824 664.638 215.488 665.089C211.563 666.401 207.179 663.285 203.212 664.474C199.872 665.499 198.035 669.19 194.736 670.379C190.686 671.896 186.469 669.108 182.293 667.96C177.867 666.77 172.898 667.549 169.057 670.051C165.842 672.183 163.504 675.341 160.915 678.211C155.654 684.034 148.096 688.914 140.288 687.684C145.382 691.949 152.981 691.949 159.37 689.939C165.758 687.93 171.437 684.28 177.617 681.779C183.796 679.277 191.062 678.047 197.033 681C201.751 683.337 205.592 688.176 210.853 688.053C213.902 688.012 217.451 686.331 219.705 688.381C220.457 689.037 220.833 689.98 221.25 690.882C222.879 694.573 224.8 698.182 227.681 701.052C230.562 703.922 234.487 705.932 238.579 705.768C242.378 705.645 245.844 703.717 249.351 702.282C254.779 700.109 260.709 699.043 266.554 699.248C270.187 699.371 274.07 699.945 277.327 698.346C282.505 695.803 283.716 689.119 283.799 683.419C283.841 681.246 283.507 678.58 281.461 677.801" fill="#A93D0F"/>
<path d="M273.859 626.474C270.101 612.573 265.55 597.523 253.65 589.117C235.528 576.364 207.928 584.319 190.224 571.033C185.882 567.793 182.374 563.365 177.447 561.109C167.969 556.722 157.071 561.519 146.757 563.488C140.786 564.636 134.565 564.759 128.552 563.857C129.012 571.074 130.682 578.701 136.026 583.663C141.371 588.625 149.096 589.814 156.277 591.331C162.457 592.602 168.553 594.284 174.524 596.293C177.238 597.195 180.036 598.261 182.124 600.23C184.003 601.993 185.172 604.33 186.049 606.709C188.596 613.557 189.097 620.979 191.017 628.032C192.938 635.086 196.696 642.262 203.377 645.419C208.68 647.921 215.068 647.552 220.162 650.463C225.423 653.457 228.221 659.321 232.73 663.339C240.455 670.228 251.979 670.761 262.376 669.818C265.007 669.572 267.888 669.162 269.725 667.276C271.562 665.39 271.896 662.56 272.105 659.977C272.94 648.864 273.191 637.71 272.857 626.597" fill="#FDE400"/>
<path d="M158.657 570.049C162.749 569.516 166.841 568.614 171.017 568.696C175.192 568.778 179.493 570.008 182.291 573.001C184.337 575.257 185.38 578.25 187.51 580.424C193.022 585.959 203.084 583.458 209.473 587.969C211.268 589.24 212.646 591.003 214.567 592.11C220.496 595.637 228.388 591.618 235.027 593.546C243.086 595.883 245.925 605.397 251.562 611.548C252.188 612.245 252.898 612.942 253.817 613.229C255.069 613.639 256.405 613.229 257.741 613.229C261.499 613.27 264.297 616.592 266.385 619.667C268.765 623.153 270.978 626.761 273.065 630.452C273.232 640.252 272.94 650.094 272.23 659.854C272.189 660.469 272.147 661.125 272.063 661.781C270.727 661.576 269.433 661.371 268.097 661.207C263.754 660.551 259.453 659.936 255.069 659.895C249.766 659.854 243.754 660.51 239.912 656.942C234.735 652.144 236.739 642.631 231.227 638.284C227.803 635.619 222.96 636.029 218.617 635.988C214.233 635.947 209.055 634.552 207.761 630.452C206.341 625.941 210.767 621.02 209.097 616.592C206.968 610.892 196.821 611.015 195.443 605.069C194.901 602.772 196.07 600.353 195.777 598.015C195.318 593.956 190.976 591.495 186.967 590.429C182.959 589.322 178.491 588.789 175.526 585.959C174.148 584.647 173.23 582.966 171.977 581.531C165.004 573.657 151.267 576.528 142.791 570.254C147.926 570.787 153.313 570.746 158.657 570.049Z" fill="#C67700"/>
<path d="M262.796 629.249H556.541V452.1C556.541 446.892 552.241 442.627 546.896 442.627H272.442C267.139 442.627 262.796 446.851 262.796 452.1V629.249Z" fill="#121212"/>
<path d="M269.644 453.576H548.483V619.448H269.644V453.576Z" fill="#07B5D9"/>
<path d="M262.796 629.249L241.084 717.66H585.728L556.541 629.249H262.796Z" fill="#166CA6"/>
<path d="M584.433 725L242.462 724.508L241.167 717.619L585.644 717.66L584.433 725ZM450.776 711.96H369.647C367.851 711.96 366.557 710.278 366.974 708.597L371.609 690.841C371.86 689.857 372.737 689.201 373.78 689.201H445.39C446.517 689.201 447.478 689.939 447.77 691.005L452.948 709.171C453.365 710.525 452.279 711.96 450.776 711.96Z" fill="white"/>
<path d="M369.647 711.96H450.776C451.57 711.96 452.238 711.55 452.655 710.976L446.977 692.112C446.684 691.21 445.849 690.595 444.889 690.595H374.741C373.906 690.595 373.196 691.128 372.945 691.907L367.308 710.648C367.768 711.427 368.645 711.96 369.647 711.96Z" fill="#166CA6"/>
<path d="M278.788 647.128V648.03H300.459L303.967 635.4L303.424 634.211L278.788 647.128ZM309.353 647.128V648.03H331.024L334.489 635.4L333.988 634.211L309.353 647.128ZM273.486 666.114V667.139H295.449L298.789 654.632L298.204 653.607L273.486 666.114ZM293.11 672.593V674.275L289.812 686.577H268.016V685.674L293.11 672.593ZM304.092 666.114V667.139H326.055L329.395 654.632L328.811 653.607L304.092 666.114ZM323.717 672.593V674.275L320.418 686.577H298.622V685.674L323.717 672.593ZM339.792 647.128V648.03H362.006L364.97 635.4L364.427 634.211L339.792 647.128ZM334.531 666.114V667.139H357.162L359.834 654.632V653.607L334.531 666.114ZM355.2 672.593V674.152L352.152 686.577H329.061V685.674L355.2 672.593Z" fill="white"/>
<path d="M304.092 666.114H325.303L328.644 653.607H307.557L304.092 666.114ZM333.863 634.211H312.902L309.353 647.128H330.397L333.863 634.211ZM298.664 685.674H320L323.549 672.593H302.296L298.664 685.674ZM273.486 666.114H294.864L298.204 653.607H276.951L273.486 666.114ZM343.341 634.211L339.792 647.128H361.379L364.553 634.211H343.341ZM332.736 672.593L329.103 685.674H351.985L355.2 672.593H332.736ZM293.11 672.593H271.69L268.016 685.674H289.561L293.11 672.593ZM359.834 653.607H337.997L334.531 666.114H356.745L359.834 653.607ZM299.958 647.128L303.424 634.211H282.379L278.788 647.128H299.958Z" fill="#BA3EFF"/>
<path d="M548.441 477.606C534.369 472.767 519.045 471.127 504.097 472.07C480.13 473.587 456.956 481.256 434.742 490.195C412.529 499.135 390.816 509.509 367.977 516.808C363.843 518.121 359.542 519.392 355.2 518.941C350.857 518.49 346.473 515.988 345.137 511.929C341.796 501.841 358.164 493.025 354.907 482.896C352.861 476.458 344.385 474.859 337.496 474.818C314.155 474.694 290.855 479.738 269.602 489.211V517.67C275.49 514.348 281.586 511.355 288.058 509.263C296.409 506.557 307.098 506.024 312.443 512.831C318.956 521.114 312.902 533.744 317.077 543.381C319.499 548.999 325.178 552.73 331.191 554.289C337.203 555.847 343.508 555.478 349.688 554.781C379.877 551.459 408.729 541.207 438.083 533.539C467.436 525.871 498.544 520.745 528.023 527.839C535.038 529.521 542.052 532.104 548.399 535.631V477.606H548.441Z" fill="#33C3DF"/>
<path d="M482.677 603.087C479.963 608.131 478.501 613.79 478.334 619.448H548.441V595.829C541.635 596.157 534.87 596.485 528.064 596.813C525.81 596.936 523.263 596.936 521.634 595.337C520.549 594.27 520.173 592.712 520.048 591.195C519.212 581.722 526.102 572.537 524.098 563.269C521.926 553.14 510.486 547.933 500.214 545.636C456.831 535.877 411.736 550.434 371.275 568.641C352.235 577.211 331.9 586.889 311.315 583.157C303.758 581.804 295.95 578.073 292.818 571.143C287.599 559.62 297.787 546.661 296.534 534.072C296.325 531.776 295.657 529.48 294.112 527.757C289.812 522.878 281.753 525.256 275.991 528.331C273.82 529.521 271.648 530.751 269.561 532.022V602.39C274.822 607.68 283.298 608.418 290.939 608.418C305.47 608.377 319.959 607.023 334.239 604.358C374.115 596.895 411.485 579.344 451.319 571.717C459.378 570.199 467.896 569.092 475.662 571.758C483.429 574.423 490.026 581.886 488.898 589.883C488.272 594.721 485.015 598.781 482.677 603.087Z" fill="#33C3DF"/>
<path d="M278.788 647.128V648.03H300.459L303.967 635.4L303.424 634.211L278.788 647.128ZM309.353 647.128V648.03H331.024L334.489 635.4L333.988 634.211L309.353 647.128ZM273.486 666.114V667.139H295.449L298.789 654.632L298.204 653.607L273.486 666.114ZM293.11 672.593V674.275L289.812 686.577H268.016V685.674L293.11 672.593ZM304.092 666.114V667.139H326.055L329.395 654.632L328.811 653.607L304.092 666.114ZM323.717 672.593V674.275L320.418 686.577H298.622V685.674L323.717 672.593ZM339.792 647.128V648.03H362.006L364.97 635.4L364.427 634.211L339.792 647.128ZM334.531 666.114V667.139H357.162L359.834 654.632V653.607L334.531 666.114ZM355.2 672.593V674.152L352.152 686.577H329.061V685.674L355.2 672.593Z" fill="white"/>
<path d="M304.092 666.114H325.303L328.644 653.607H307.557L304.092 666.114ZM333.863 634.211H312.902L309.353 647.128H330.397L333.863 634.211ZM298.664 685.674H320L323.549 672.593H302.296L298.664 685.674ZM273.486 666.114H294.864L298.204 653.607H276.951L273.486 666.114ZM343.341 634.211L339.792 647.128H361.379L364.553 634.211H343.341ZM332.736 672.593L329.103 685.674H351.985L355.2 672.593H332.736ZM293.11 672.593H271.69L268.016 685.674H289.561L293.11 672.593ZM359.834 653.607H337.997L334.531 666.114H356.745L359.834 653.607ZM299.958 647.128L303.424 634.211H282.379L278.788 647.128H299.958Z" fill="#BA3EFF"/>
<path d="M546.729 647.128V648.03H525.058L521.551 635.4L522.052 634.211L546.729 647.128ZM516.164 647.128V648.03H494.494L490.986 635.4L491.487 634.211L516.164 647.128ZM552.032 666.114V667.139H530.069L526.687 654.632L527.271 653.607L552.032 666.114ZM532.407 672.593V674.275L535.664 686.577H557.502V685.674L532.407 672.593ZM521.425 666.114V667.139H499.462L496.122 654.632L496.707 653.607L521.425 666.114ZM501.801 672.593V674.275L505.058 686.577H526.895V685.674L501.801 672.593ZM485.725 647.128V648.03H463.512L460.547 635.4L461.048 634.211L485.725 647.128ZM490.986 666.114V667.139H468.355L465.683 654.632V653.607L490.986 666.114ZM470.318 672.593V674.152L473.366 686.577H496.456V685.674L470.318 672.593Z" fill="white"/>
<path d="M521.426 666.114H500.214L496.832 653.607H517.96L521.426 666.114ZM491.613 634.211H512.574L516.164 647.128H495.12L491.613 634.211ZM526.854 685.674H505.475L501.968 672.593H523.221L526.854 685.674ZM552.032 666.114H530.653L527.271 653.607H548.524L552.032 666.114ZM482.134 634.211L485.725 647.128H464.096L460.965 634.211H482.134ZM492.782 672.593L496.414 685.674H473.533L470.318 672.593H492.782ZM532.407 672.593H553.827L557.502 685.674H535.914L532.407 672.593ZM465.683 653.607H487.521L490.986 666.114H468.731L465.683 653.607ZM525.559 647.128L522.052 634.211H543.138L546.729 647.128H525.559Z" fill="#BA3EFF"/>
<path d="M397.539 634.211V635.523L394.867 647.866H372.444V647.128L397.539 634.211ZM393.322 653.607V654.55L390.733 666.77H366.933V666.114L393.322 653.607ZM400.963 647.128L401.172 647.866H426.183L426.642 647.128H400.963ZM396.829 666.114L397.121 666.77H430.442L430.776 666.114H396.829ZM430.066 634.211V635.236L432.697 647.866H454.868L455.369 647.128L430.066 634.211ZM434.283 653.607L434.074 654.755L436.83 666.77H460.505L460.839 666.114L434.283 653.607Z" fill="white"/>
<path d="M432.864 647.128H455.369L451.611 634.211H430.066L432.864 647.128ZM400.963 647.128H426.642L423.803 634.211H403.76L400.963 647.128ZM430.776 666.114L428.02 653.607H399.543L396.829 666.114H430.776ZM434.283 653.607L436.997 666.114H460.839L457.248 653.607H434.283ZM394.7 647.128L397.539 634.211H376.202L372.444 647.128H394.7ZM393.322 653.607H370.565L366.933 666.114H390.566L393.322 653.607Z" fill="#BA3EFF"/>
<path d="M362.883 684.362L363.384 685.673H463.595L464.555 684.362H362.883Z" fill="white"/>
<path d="M464.555 684.362H362.883L366.39 672.593H461.841L464.555 684.362Z" fill="#BA3EFF"/>
<path d="M477.708 401.99C477.708 400.923 478.501 400.021 478.961 399.037C480.547 395.551 477.708 391.205 479.295 387.719C480.005 386.161 481.466 385.095 482.677 383.865C484.347 382.142 485.642 380.092 486.811 378.001C487.729 376.401 488.564 374.761 489.817 373.408C491.028 372.055 492.698 370.947 494.535 370.742C494.953 370.701 495.37 370.701 495.704 370.906C496.08 371.111 496.289 371.562 496.456 371.932C496.999 373.449 496.915 375.171 496.206 376.606C495.579 377.919 494.41 379.108 494.619 380.543C496.707 379.682 498.753 378.821 500.84 377.96C502.552 377.262 504.306 376.524 506.101 375.991C509.484 374.966 513.116 374.638 516.624 375.007C517.292 375.089 518.127 375.335 518.127 376.032C518.127 376.36 517.876 376.688 517.626 376.893C516.749 377.631 515.663 378.042 514.619 378.411C511.822 379.436 508.982 380.461 506.185 381.486C505.099 381.896 503.888 382.347 503.387 383.372C507.772 382.511 512.281 381.978 516.749 381.773C517.584 381.732 518.461 381.691 519.254 381.937C520.047 382.183 520.799 382.757 521.008 383.577C521.05 383.783 521.091 384.029 520.966 384.234C520.799 384.562 520.423 384.685 520.089 384.767C516.874 385.628 513.617 386.161 510.319 386.448C508.941 386.571 507.312 386.735 506.519 387.842C510.193 387.801 513.826 387.76 517.5 387.678C518.962 387.678 520.716 387.801 521.467 389.031C520.716 389.934 519.421 390.098 518.252 390.221C514.745 390.59 511.237 390.959 507.73 391.369C511.321 391.943 514.953 392.476 518.461 393.46C519.129 393.665 520.006 394.28 519.588 394.854C519.463 395.018 519.254 395.1 519.087 395.182C516.791 396.044 514.244 395.592 511.822 395.839C508.189 396.208 504.807 398.258 502.803 401.251C502.093 402.277 501.55 403.425 500.548 404.163C499.212 405.106 497.416 405.106 495.83 405.393C494.034 405.762 492.281 406.582 490.903 407.771C490.402 408.182 489.942 408.674 489.316 408.879C488.397 409.166 487.395 408.715 486.518 408.264C483.387 406.541 480.589 404.327 478.251 401.661" fill="#F2A27F"/>
<path d="M395.201 281.922C396.704 284.095 397.622 286.637 398.249 289.18C399.835 295.454 399.961 302.138 398.499 308.453C397.247 313.948 394.867 319.197 394.574 324.815C394.449 327.521 394.783 330.269 395.368 332.934C397.08 341.053 400.67 348.804 405.806 355.447C408.103 358.44 410.733 361.188 412.905 364.304C421.381 376.483 421.715 392.681 417.581 406.828C412.738 423.436 393.99 433.237 379.751 440.946C364.887 449.024 349.938 457.103 334.28 463.582C323.007 468.256 311.19 472.152 298.998 472.562C286.763 472.972 274.028 469.528 265.26 461.203C261.168 457.308 258.036 452.51 254.988 447.753C251.773 442.75 248.516 437.665 246.679 432.006C244.8 426.183 244.508 420.032 244.549 413.922C244.591 403.22 245.635 392.435 248.975 382.224C251.105 375.704 254.195 369.389 258.37 363.894C262.462 358.481 267.807 354.299 271.899 348.886C280.417 337.65 285.803 324.077 287.097 310.134C287.599 304.68 287.515 299.144 288.434 293.691C289.728 285.94 293.152 278.436 298.831 272.9C305.344 266.544 314.363 263.141 323.466 261.828C336.827 259.86 350.815 262.033 362.924 267.938C365.471 269.169 368.185 271.588 370.858 272.449C373.53 273.31 377.163 272.777 380.002 273.31C385.889 274.417 391.777 276.878 395.201 281.922Z" fill="#641E19"/>
<path d="M335.366 332.196C330.188 332.319 325.929 336.215 323.132 340.52C320.334 344.785 318.497 349.665 315.24 353.601C312.651 356.759 309.227 359.137 306.346 362.049C303.34 365.083 300.877 368.692 299.206 372.629C297.578 376.401 296.743 380.994 298.998 384.439C300.292 386.366 302.38 387.678 304.509 388.58C313.445 392.394 324.217 390.672 332.318 385.382C340.418 380.092 345.972 371.603 348.978 362.5C351.358 355.201 352.026 346.671 347.517 340.397C344.302 335.928 338.999 333.426 333.821 331.54" fill="#4A1316"/>
<path d="M405.806 355.447C400.67 348.845 397.079 341.094 395.367 332.934C394.825 330.269 394.449 327.521 394.574 324.815C394.616 323.749 394.741 322.682 394.95 321.657C390.19 326.783 384.428 331.007 377.997 333.959C366.306 339.331 352.569 340.315 340.168 336.707C335.909 335.477 330.146 334.205 327.933 337.978C327.224 339.208 327.098 340.643 327.098 342.038C327.015 350.28 329.395 358.768 326.848 366.642C325.136 371.932 321.253 376.77 321.712 382.306C321.921 385.095 323.257 387.637 324.551 390.098C329.604 399.816 334.907 409.863 343.675 416.547C349.02 420.607 355.325 423.231 361.546 425.773C366.765 427.906 372.068 430.079 377.705 430.612C382.256 431.063 386.849 430.448 391.275 429.464C395.66 428.521 400.044 427.209 404.261 425.486C410.399 420.32 415.451 414.21 417.623 406.746C421.756 392.599 421.381 376.401 412.946 364.222C410.733 361.229 408.103 358.44 405.806 355.447Z" fill="#4A1316"/>
<path d="M380.712 367.626C380.712 367.626 424.471 395.715 445.933 439.716L474.034 397.602L493.533 410.027L462.092 472.234C462.092 472.234 446.768 482.076 432.571 473.587L392.737 432.088L380.712 367.626Z" fill="#BB0780"/>
<path d="M317.829 367.626C317.829 367.626 351.024 362.008 380.67 367.626C380.67 367.626 419.21 393.46 399.042 451.28C399.042 451.28 395.869 495.362 401.004 515.332C401.004 515.332 404.679 539.403 403.718 546.005C403.718 546.005 320.334 553.182 295.657 539.977C295.657 539.977 307.223 447.343 304.718 431.227C304.76 431.268 272.984 399.939 317.829 367.626Z" fill="#FF33DF"/>
<path d="M358.916 547.974C359.626 546.538 359.709 544.816 358.79 543.504C358.081 542.561 356.995 541.987 355.909 541.536C347.475 537.845 337.83 536.779 328.769 538.46C327.057 538.788 325.053 539.075 323.883 537.845C321.921 535.795 324.635 532.678 327.14 531.325C341.922 523.37 359.041 520.745 375.826 519.269C378.958 518.982 382.966 517.834 383.008 514.799C383.008 512.708 381.046 511.232 379.167 510.247C373.446 507.295 366.515 505.655 362.799 500.447C358.749 494.829 360.085 486.751 364.177 481.174C365.555 479.287 367.267 477.36 367.183 475.064C367.1 473.136 365.764 471.496 364.636 469.938C357.371 459.809 356.995 445.375 363.676 434.877L362.423 434.057C356.452 431.76 349.771 432.088 343.341 432.499C337.12 432.909 330.773 433.36 324.886 435.41C316.618 438.24 309.729 444.062 304.635 451.075C302.714 483.511 295.657 539.977 295.657 539.977C308.058 546.579 334.99 548.097 358.916 547.974Z" fill="#9F076E"/>
<path d="M345.721 405.721L359.751 427.865L381.004 367.831C380.795 367.667 380.67 367.626 380.67 367.626C359.208 363.566 335.867 365.37 324.635 366.683L345.721 405.721Z" fill="#DEDEDF"/>
<path d="M338.999 350.526L335.45 365.863L353.78 379.641L366.265 366.437C366.265 366.437 362.298 358.071 362.507 352.084L338.999 350.526Z" fill="#F2A27F"/>
<path d="M317.829 367.626C317.829 367.626 291.482 375.212 274.571 411.503L249.852 463.541L276.033 474.654L316.535 414.374L317.829 367.626Z" fill="#FF33DF"/>
<path d="M385.263 371.439C383.217 369.471 381.63 368.282 381.004 367.831C376.453 377.139 361.964 408.141 359.751 428.931C359.751 428.931 375.826 408.961 379.459 406.213L378.039 391.984L386.683 386.448C386.683 386.407 386.683 377.837 385.263 371.439ZM324.844 366.683C324.05 366.765 323.341 366.847 322.672 366.929C320.668 373.285 323.591 388.293 323.591 388.293L333.529 392.476L334.99 407.73C339.249 409.904 359.751 427.865 359.751 427.865C352.986 405.516 330.314 374.064 324.844 366.683Z" fill="#BB0780"/>
<path d="M299.833 410.068C300.668 410.273 364.135 424.01 364.135 424.01C364.135 424.01 369.772 426.471 368.102 432.827L345.554 514.43L281.252 497.412L299.833 410.068Z" fill="#1524A7"/>
<path d="M302.129 412.528L360.168 425.855C360.168 425.855 368.519 431.186 360.168 429.956L304.634 418.679L286.304 498.766L282.546 497.781L302.129 412.528Z" fill="#DEDEDF"/>
<path d="M321.044 487.735C326.138 486.751 328.643 480.435 333.696 479.205C334.823 478.918 335.992 478.959 337.161 478.877C339.834 478.713 342.464 478.139 344.928 477.155C345.721 476.827 346.515 476.458 347.391 476.417C348.268 476.376 349.187 476.704 349.604 477.442C349.98 478.221 349.688 479.205 349.062 479.82C348.435 480.435 347.6 480.805 346.807 481.133C344.97 481.871 343.174 482.609 341.337 483.347C340.544 483.675 339.625 484.208 339.75 485.028C339.834 485.807 340.794 486.135 341.587 486.299C343.967 486.71 346.431 486.792 348.853 486.874C350.732 486.956 352.736 487.079 354.281 488.186C355.784 489.293 356.369 491.794 354.949 492.984C354.323 493.517 353.237 493.968 353.404 494.788C353.488 495.198 353.863 495.444 354.072 495.772C354.657 496.592 354.406 497.781 353.78 498.56C353.112 499.34 352.151 499.791 351.233 500.16C351.817 500.816 352.444 501.472 352.736 502.292C353.028 503.112 352.903 504.137 352.193 504.67C351.859 504.957 351.358 505.081 351.066 505.368C350.189 506.188 350.69 507.623 350.398 508.771C350.147 509.755 349.27 510.493 348.31 510.821C347.35 511.191 346.306 511.232 345.304 511.273C339.876 511.519 334.239 511.683 329.312 509.427C326.639 508.197 324.343 506.27 322.13 504.424C321.253 503.686 320.334 502.948 319.833 501.923C319.416 501.103 319.332 500.201 319.249 499.258C318.956 495.116 319.75 490.851 321.462 487.079" fill="#FBC0A4"/>
<path d="M249.852 463.541C249.978 463.336 323.174 486.135 323.174 486.135L319.833 506.229L249.852 487.571C249.852 487.571 243.339 474.572 249.852 463.541Z" fill="#FF33DF"/>
<path d="M381.087 298.119C381.087 298.119 389.772 347.04 358.54 358.481C358.54 358.481 326.514 366.642 325.345 318.5C325.345 318.5 334.447 273.474 381.087 298.119Z" fill="#FBC0A4"/>
<path d="M368.394 297.34C368.394 297.34 349.771 317.228 323.174 322.19C323.174 322.19 311.482 315.957 323.174 297.34C323.174 297.34 350.022 280.24 368.394 287.088C368.394 287.088 385.472 290.492 384.845 308.207C384.887 308.207 372.194 305.09 368.394 297.34Z" fill="#641E19"/>
<path d="M327.307 321.985C327.307 321.985 319.416 316.736 317.829 325.676C317.829 325.676 318.205 342.161 329.479 338.88L327.307 321.985Z" fill="#FBC0A4"/>
<path d="M295.699 540.018L276.366 619.49H395.743C400.253 591.933 406.433 550.68 403.76 546.046L295.699 540.018Z" fill="#1524A7"/>
<path d="M332.568 566.919C337.036 563.597 342.423 561.67 347.725 559.866C362.757 554.699 377.872 549.901 393.155 545.431L295.699 540.018L276.366 619.49H302.046C303.799 616.291 306.012 613.298 308.601 610.714C319.165 600.175 334.99 596.485 346.514 586.971C348.435 585.372 350.398 582.993 349.521 580.656C348.686 578.483 345.93 577.909 343.592 577.622C340.377 577.212 337.161 576.842 333.946 576.432C332.527 576.268 330.982 576.022 329.98 575.038C327.683 572.701 329.98 568.846 332.568 566.919Z" fill="#000E88"/>
</g>
<defs>
<filter id="filter0_d_409_972" x="0" y="0" width="843.096" height="733" filterUnits="userSpaceOnUse" color-interpolation-filters="sRGB">
<feFlood flood-opacity="0" result="BackgroundImageFix"/>
<feColorMatrix in="SourceAlpha" type="matrix" values="0 0 0 0 0 0 0 0 0 0 0 0 0 0 0 0 0 0 127 0" result="hardAlpha"/>
<feOffset dy="4"/>
<feGaussianBlur stdDeviation="2"/>
<feComposite in2="hardAlpha" operator="out"/>
<feColorMatrix type="matrix" values="0 0 0 0 0 0 0 0 0 0 0 0 0 0 0 0 0 0 0.1 0"/>
<feBlend mode="normal" in2="BackgroundImageFix" result="effect1_dropShadow_409_972"/>
<feBlend mode="normal" in="SourceGraphic" in2="effect1_dropShadow_409_972" result="shape"/>
</filter>
</defs>
</svg>
